<?xml version="1.0" encoding="utf-8"?>
<!-- Generator: Adobe Illustrator 16.0.0, SVG Export Plug-In . SVG Version: 6.00 Build 0)  -->
<!DOCTYPE svg PUBLIC "-//W3C//DTD SVG 1.1//EN" "http://www.w3.org/Graphics/SVG/1.1/DTD/svg11.dtd">
<svg version="1.1" id="a6d100e00e283ca40b2946e9b39e2e6fdfc7b9611a24b-4Okn7P_xA0_图像_1_"
	 xmlns="http://www.w3.org/2000/svg" xmlns:xlink="http://www.w3.org/1999/xlink" x="0px" y="0px" width="600px" height="1476px"
	 viewBox="0 0 600 1476" enable-background="new 0 0 600 1476" xml:space="preserve">
<path fill-rule="evenodd" clip-rule="evenodd" d="M124.593,919.875c-0.913-0.054-1.615-0.13-2.317-0.132
	c-9.992-0.021-19.984-0.011-29.977-0.065c-1.363-0.008-2.165,0.35-2.737,1.698c-1.057,2.492-2.354,4.883-3.555,7.313
	c-0.211,0.426-0.356,0.939-0.69,1.232c-0.305,0.268-0.918,0.498-1.224,0.361c-0.307-0.138-0.563-0.756-0.548-1.152
	c0.02-0.531,0.268-1.077,0.508-1.574c4.886-10.133,9.786-20.259,14.675-30.39c0.134-0.278,0.168-0.604,0.318-1.169
	c-0.619-0.402-1.224-0.886-1.901-1.225c-7.994-4.002-13.633-10.157-16.856-18.49c-1.276-3.3-1.883-6.764-2.08-10.289
	c-0.108-1.943,0.35-2.402,2.34-2.435c2.557-0.04,5.116-0.007,7.674-0.007c17.826,0,35.652,0,53.479-0.001
	c0.24,0,0.48-0.007,0.72-0.002c2.208,0.048,2.684,0.379,2.479,2.491c-0.26,2.692-0.503,5.45-1.285,8.018
	c-2.436,7.997-7.189,14.353-14.284,18.87c-1.007,0.642-2.101,1.146-3.144,1.733c-0.675,0.379-1.33,0.793-2.098,1.253
	c1.486,3.393,2.885,6.596,4.292,9.795c0.674,1.533,1.38,3.053,2.04,4.593c0.411,0.959,0.982,1.242,2.07,1.007
	c6.26-1.353,11.16,1.638,12.865,7.624c1.696,5.953-3.561,12.525-9.567,12.829c-6.187,0.313-11.364-5.223-11.037-10.439
	C124.776,920.938,124.67,920.545,124.593,919.875z M80.516,866.275c0.877,10.861,5.64,19.412,14.888,24.904
	c11.232,6.669,22.735,6.37,33.661-0.862c8.5-5.627,12.793-13.872,13.566-23.99C140.53,865.736,83.115,865.668,80.516,866.275z
	 M91.507,917.307c1.262,0.058,2.041,0.123,2.821,0.125c9.192,0.021,18.386-0.028,27.577,0.093c2.246,0.029,3.617-0.58,5.099-2.448
	c1.534-1.933,1.786-3.273,0.721-5.415c-1.843-3.704-3.359-7.571-5.052-11.353c-0.729-1.628-1.127-1.86-2.508-1.392
	c-2.928,0.995-5.973,1.13-8.994,1.082c-2.457-0.038-4.941-0.359-7.349-0.861c-2.297-0.479-2.276-0.66-3.279,1.412
	c-2.499,5.17-4.982,10.348-7.473,15.521C92.631,914.986,92.188,915.899,91.507,917.307z M135.028,929.421
	c4.597-0.02,8.317-3.599,8.412-8.097c0.091-4.278-3.985-8.29-8.345-8.214c-4.395,0.076-8.128,3.821-8.13,8.153
	C126.963,925.621,130.737,929.439,135.028,929.421z"/>
<path fill-rule="evenodd" clip-rule="evenodd" d="M120.578,854.144c-0.135,2.346-0.981,4.69-2.797,6.641
	c-0.468,0.503-1.108,0.927-1.608,0.278c-0.288-0.374-0.196-1.127-0.1-1.679c0.061-0.349,0.429-0.655,0.688-0.956
	c2.003-2.314,1.914-7.43-0.153-9.567c-0.22-0.228-0.518-0.477-0.566-0.753c-0.087-0.494-0.208-1.161,0.038-1.498
	c0.471-0.646,1.106-0.329,1.645,0.123C119.269,848.028,120.601,851.333,120.578,854.144z"/>
<path fill-rule="evenodd" clip-rule="evenodd" d="M102.132,847.153c0.114-2.425,0.896-4.795,2.733-6.745
	c0.495-0.525,1.047-1.157,1.801-0.454c0.669,0.625,0.28,1.24-0.129,1.901c-0.664,1.073-1.385,2.169-1.747,3.357
	c-0.683,2.237-0.319,4.418,1.001,6.394c0.309,0.463,0.767,0.868,0.934,1.373c0.15,0.452-0.007,1.005-0.029,1.514
	c-0.501-0.03-1.056,0.064-1.487-0.124c-0.404-0.178-0.729-0.618-0.997-1.006C102.969,851.558,102.208,849.576,102.132,847.153z"/>
</svg>
